<svg viewBox="0 0 95 16" fill="none" xmlns="http://www.w3.org/2000/svg">
  <path fill="#E8E4DC" d="M0 0V16H11.415V13.042H3.54884V0H0Z"/>
  <path fill="#E8E4DC" d="M17.4678 9.81513L19.57 3.94398H19.6152L21.6496 9.81513H17.4678ZM17.8069 0L11.7038 16H15.2752L16.541 12.437H22.5763L23.7969 16H27.4814L21.4461 0H17.8069Z"/>
  <path fill="#E8E4DC" d="M32.422 6.47619V2.73389H35.7448C36.0612 2.73389 36.3626 2.76377 36.6489 2.82353C36.9503 2.86835 37.214 2.95798 37.4401 3.09244C37.6661 3.22689 37.847 3.41363 37.9826 3.65266C38.1182 3.89169 38.186 4.19795 38.186 4.57143C38.186 5.2437 37.9826 5.72923 37.5757 6.02801C37.1688 6.3268 36.6489 6.47619 36.016 6.47619H32.422ZM28.8731 0V16H36.6941C37.4175 16 38.1182 15.9104 38.7963 15.7311C39.4895 15.5518 40.0998 15.2754 40.6273 14.902C41.1698 14.5285 41.5992 14.0504 41.9157 13.4678C42.2321 12.8702 42.3904 12.1681 42.3904 11.3613C42.3904 10.3604 42.1417 9.50887 41.6444 8.80672C41.1622 8.08964 40.4238 7.58917 39.4292 7.30532C40.1526 6.96172 40.6951 6.52101 41.0567 5.98319C41.4335 5.44538 41.6218 4.77311 41.6218 3.96639C41.6218 3.21942 41.4937 2.59197 41.2376 2.08403C40.9965 1.5761 40.6499 1.17274 40.1978 0.87395C39.7457 0.560224 39.2032 0.336135 38.5703 0.201681C37.9374 0.067227 37.2366 0 36.4681 0H28.8731ZM32.422 13.2661V8.87395H36.2873C37.0558 8.87395 37.6737 9.05322 38.1408 9.41177C38.608 9.75537 38.8415 10.338 38.8415 11.1597C38.8415 11.578 38.7662 11.9216 38.6155 12.1905C38.4799 12.4594 38.2915 12.676 38.0504 12.8403C37.8093 12.9897 37.5305 13.1018 37.214 13.1765C36.8976 13.2362 36.5661 13.2661 36.2195 13.2661H32.422Z"/>
  <path fill="#E8E4DC" d="M44.7887 0V16H48.1115V4.77311H48.1567L52.1124 16H54.8475L58.8032 4.66106H58.8484V16H62.1712V0H57.1757L53.6043 11.0028H53.5591L49.7842 0H44.7887Z"/>
  <path fill="#E8E4DC" d="M69.3644 9.81513L71.4666 3.94398H71.5118L73.5462 9.81513H69.3644ZM69.7035 0L63.6004 16H67.1718L68.4377 12.437H74.4729L75.6936 16H79.378L73.3427 0H69.7035Z"/>
  <path fill="#E8E4DC" d="M80.7698 0V16H84.0926V5.28852H84.1378L90.8512 16H94.4V0H91.0772V10.7339H91.032L84.296 0H80.7698Z"/>
</svg>
